<svg width="37" height="37" viewBox="0 0 37 37" fill="none" xmlns="http://www.w3.org/2000/svg">
<g clip-path="url(#clip0_2230_7249)">
<path d="M9.5705 14.5625C10.764 14.5625 11.9086 14.0884 12.7525 13.2445M9.5705 14.5625C8.37702 14.5625 7.23243 14.0884 6.38852 13.2445M9.5705 14.5625V17.9375M12.7525 13.2445C13.5964 12.4006 14.0705 11.256 14.0705 10.0625M12.7525 13.2445L15.1385 15.6305M14.0705 10.0625C14.0705 8.86903 13.5964 7.72443 12.7525 6.88052M14.0705 10.0625H17.4455M12.7525 6.88052C11.9086 6.03661 10.764 5.5625 9.5705 5.5625M12.7525 6.88052L15.1385 4.4945M9.5705 5.5625C8.37702 5.5625 7.23243 6.03661 6.38852 6.88052M9.5705 5.5625V2.1875M6.38852 6.88052C5.5446 7.72443 5.0705 8.86903 5.0705 10.0625M6.38852 6.88052L4.0025 4.4945M5.0705 10.0625C5.0705 11.256 5.5446 12.4006 6.38852 13.2445M5.0705 10.0625H1.6955M6.38852 13.2445L4.0025 15.6305M8.8205 2.1875H10.3205M14.609 3.9635L15.6695 5.024M17.4455 9.3125V10.8125M15.6695 15.101L14.609 16.1615M10.3205 17.9375H8.8205M4.532 16.1615L3.4715 15.101M1.6955 10.8125V9.3125M3.4715 5.024L4.532 3.9635M27.719 14.15C28.6965 14.9789 29.49 16.0029 30.0487 17.1563C30.6074 18.3098 30.9189 19.5672 30.9634 20.848C31.0079 22.1289 30.7843 23.4049 30.307 24.5943C29.8296 25.7837 29.1091 26.8603 28.1915 27.755C26.3983 29.5054 23.9917 30.4853 21.4857 30.4853C18.9798 30.4853 16.5732 29.5054 14.78 27.755C13.707 26.7024 12.9051 25.4053 12.443 23.975" stroke="#9FC421" stroke-width="2" stroke-linecap="round" stroke-linejoin="round"/>
<path d="M24.7265 17.0811C24.4706 17.3315 24.1268 17.4717 23.7688 17.4717C23.4107 17.4717 23.0669 17.3315 22.811 17.0811L20.9 15.2001C20.7744 15.0778 20.6745 14.9316 20.6063 14.77C20.5381 14.6085 20.503 14.4349 20.503 14.2596C20.503 14.0843 20.5381 13.9107 20.6063 13.7492C20.6745 13.5876 20.7744 13.4414 20.9 13.3191L26.648 7.6731C26.9043 7.42342 27.2479 7.28369 27.6058 7.28369C27.9636 7.28369 28.3072 7.42342 28.5635 7.6731L30.479 9.5556C30.6046 9.6779 30.7045 9.82413 30.7727 9.98567C30.8409 10.1472 30.876 10.3208 30.876 10.4961C30.876 10.6714 30.8409 10.845 30.7727 11.0065C30.7045 11.1681 30.6046 11.3143 30.479 11.4366L24.7265 17.0811Z" stroke="#9FC421" stroke-width="2" stroke-linecap="round" stroke-linejoin="round"/>
<path d="M29.252 8.35408L33.137 4.46608M33.137 4.46608L30.9695 2.29858M33.137 4.46608L35.3045 6.63358M9.1955 23.9751H16.7825M10.3775 34.8126H30.9695M21.215 30.4776V34.8126" stroke="#9FC421" stroke-width="2" stroke-linecap="round" stroke-linejoin="round"/>
</g>
<defs>
<clipPath id="clip0_2230_7249">
<rect width="36" height="36" fill="white" transform="translate(0.5 0.5)"/>
</clipPath>
</defs>
</svg>
