<svg width="37" height="37" viewBox="0 0 37 37" fill="none" xmlns="http://www.w3.org/2000/svg">
<path d="M6.83299 33.4925V28.1675C6.83299 26.261 6.33349 25.2695 5.35249 23.612C4.15659 21.5872 3.51752 19.2821 3.50014 16.9306C3.48275 14.5791 4.08765 12.2648 5.25349 10.2225C6.41932 8.18024 8.10459 6.48268 10.1383 5.30204C12.1721 4.1214 14.4819 3.4997 16.8335 3.5C20.3691 3.5004 23.7599 4.90489 26.2602 7.40467C28.7605 9.90445 30.1658 13.2949 30.167 16.8305C30.167 17.7005 30.167 18.1355 30.203 18.3785C30.29 18.9605 30.563 19.4615 30.8285 19.9805L33.5 25.1615L31.4 26.2115C30.7925 26.5145 30.488 26.666 30.2765 26.9465C30.065 27.227 30.005 27.545 29.8865 28.1765L29.8745 28.2395C29.6 29.6915 29.2985 31.2935 28.4495 32.3045C28.1495 32.66 27.7775 32.9495 27.359 33.155C26.6675 33.4925 25.817 33.4925 24.116 33.4925C23.3285 33.4925 22.5395 33.5105 21.752 33.4925C19.8875 33.446 18.5 31.877 18.5 30.0575" stroke="#9FC421" stroke-width="2.25" stroke-linecap="round" stroke-linejoin="round"/>
<path d="M22.082 16.2979C21.443 16.2979 20.8595 16.0549 20.417 15.6574M22.082 16.2979C22.082 18.0169 21.086 19.6489 19.169 19.6489C17.252 19.6489 16.256 21.2809 16.256 22.9999M22.082 16.2979C25.307 16.2979 25.307 11.2714 22.082 11.2714C21.788 11.2724 21.5095 11.3199 21.2465 11.4139C21.404 7.66692 16.0025 6.64992 14.7785 10.1599M14.7785 10.1599C15.671 10.7614 16.256 11.7844 16.256 12.9454M14.7785 10.1599C12.0005 8.28492 8.29849 11.6494 10.0595 14.6494C7.10449 15.0919 7.41949 19.6489 10.43 19.6489C10.8314 19.6488 11.2268 19.5516 11.5825 19.3656C11.9383 19.1796 12.2438 18.9104 12.473 18.5809" stroke="#9FC421" stroke-width="2.25" stroke-linecap="round" stroke-linejoin="round"/>
</svg>
