<svg width="66" height="32" viewBox="0 0 66 32" fill="none" xmlns="http://www.w3.org/2000/svg">
<path d="M19.6349 12.4528V15.2706H22.4252V31.9999H0.0171211C0.0110784 31.8868 0.000503563 31.7807 0.000503563 31.674C0 24.4742 0 17.2739 0 10.0736C0 9.85298 0.108937 9.74252 0.326812 9.74219C5.71997 9.74219 11.1136 9.74219 16.5068 9.74269C16.6055 9.74269 16.7042 9.7527 16.8245 9.75921V12.4563C16.8986 12.4708 16.953 12.4904 17.0073 12.4909C17.8377 12.4929 18.6681 12.4929 19.4985 12.4909C19.5463 12.4909 19.5941 12.4703 19.642 12.4593L19.6349 12.4533V12.4528ZM13.1052 18.1229C13.0972 18.205 13.0866 18.262 13.0866 18.3191C13.0861 21.7441 13.0801 25.169 13.0901 28.594C13.0926 29.453 13.494 30.1117 14.2921 30.4551C14.6909 30.6268 15.1426 30.7555 15.5732 30.7635C17.384 30.797 19.1958 30.776 21.0076 30.7805C21.1713 30.7805 21.2262 30.728 21.2247 30.5653C21.2176 29.8985 21.2222 29.2322 21.2201 28.5655C21.2201 28.5179 21.206 28.4703 21.1935 28.3923H16.0083V25.4193H20.6597C20.6597 24.7305 20.6597 24.0738 20.6597 23.4165C20.6597 23.1856 20.5465 23.0699 20.3203 23.0696C18.9783 23.0696 17.6363 23.0696 16.2943 23.0686C16.1976 23.0686 16.1009 23.0596 15.9982 23.0541V20.4896H20.9155V18.1239H13.1047L13.1052 18.1229Z" fill="#243258"/>
<path d="M63.3427 25.133C63.3563 25.156 63.3608 25.1776 63.3729 25.1836C64.3342 25.6361 64.7376 26.4896 65.0009 27.4362C65.2905 28.4774 65.5629 29.5231 65.8454 30.5658C65.8862 30.717 65.9426 30.8641 66 31.0383H63.0496C62.8512 30.3535 62.6402 29.6462 62.4418 28.9359C62.3033 28.4398 62.2087 27.9302 62.0465 27.4427C61.7243 26.4736 61.195 26.1111 60.1758 26.1066C59.8933 26.1051 59.6103 26.1066 59.3061 26.1066V31.0413H56.4877V25.7312C56.8427 25.7312 57.1846 25.7227 57.5255 25.7347C57.7043 25.7412 57.7567 25.6776 57.7547 25.5059C57.7471 24.8477 57.7471 24.1899 57.7547 23.5317C57.7567 23.3525 57.6867 23.3024 57.517 23.3074C57.1826 23.3174 56.8477 23.3104 56.4887 23.3104C56.4812 23.2068 56.4691 23.1182 56.4691 23.0296C56.4681 21.6635 56.4726 20.2969 56.4635 18.9308C56.462 18.7111 56.526 18.635 56.7521 18.607C58.586 18.3812 60.421 18.2551 62.26 18.5289C63.0657 18.649 63.8155 18.9168 64.4551 19.4444C65.1243 19.9971 65.4808 20.7119 65.5413 21.5619C65.6601 23.2268 64.9889 24.3426 63.4696 25.0579C63.4258 25.0784 63.3855 25.1075 63.3432 25.1325L63.3427 25.133ZM59.2996 24.0808C59.6526 24.0808 59.9769 24.0843 60.3017 24.0798C60.5021 24.0768 60.7071 24.0853 60.9019 24.0473C61.1789 23.9937 61.4614 23.9321 61.7182 23.8215C62.401 23.5272 62.7968 22.8444 62.7299 22.1355C62.6523 21.3116 62.2384 20.81 61.4488 20.6073C60.7886 20.4371 60.1194 20.4916 59.4532 20.5677C59.3958 20.5742 59.3061 20.6809 59.3056 20.7414C59.2966 21.8397 59.2991 22.938 59.2991 24.0808H59.2996Z" fill="#243258"/>
<path d="M45.1788 31.0694C44.4507 31.0694 43.7729 31.0694 43.0946 31.0694C42.7678 31.0694 42.4399 31.0599 42.1136 31.0734C41.9399 31.0804 41.8452 31.0193 41.7596 30.8697C40.8154 29.2112 39.8637 27.5563 38.914 25.9009C38.8687 25.8223 38.8193 25.7457 38.7508 25.6336C38.4618 25.9855 38.2009 26.3289 37.9119 26.6468C37.718 26.86 37.6536 27.0848 37.6571 27.3681C37.6707 28.4924 37.6626 29.6172 37.6626 30.742V31.0519H34.8699V18.4928H37.6571V23.9907C37.6752 23.9957 37.6934 24.0007 37.712 24.0057C37.7508 23.9587 37.7936 23.9151 37.8278 23.8651C39.0102 22.117 40.1905 20.368 41.3764 18.622C41.4202 18.5579 41.5134 18.4868 41.5839 18.4863C42.6978 18.4778 43.8116 18.4803 44.9824 18.4803C44.8898 18.604 44.8248 18.6946 44.7558 18.7817C43.4979 20.384 42.242 21.9879 40.9776 23.5847C40.8341 23.7659 40.8129 23.8941 40.9408 24.1023C42.3115 26.3324 43.6701 28.57 45.0318 30.8061C45.0741 30.8757 45.1118 30.9482 45.1788 31.0684V31.0694Z" fill="#243258"/>
<path d="M46.3542 18.6914H54.1066V21.0041H49.2049V23.6431H49.5015C50.8521 23.6431 52.2026 23.6476 53.5527 23.6386C53.7752 23.6371 53.8634 23.6882 53.8563 23.928C53.8397 24.5106 53.8513 25.0943 53.8503 25.678C53.8503 25.7601 53.8422 25.8417 53.8362 25.9483H49.2079C49.1994 26.0434 49.1873 26.1145 49.1873 26.1861C49.1858 27.0281 49.1933 27.8695 49.1817 28.711C49.1787 28.9303 49.2638 28.9723 49.4607 28.9718C51.0041 28.9658 52.5476 28.9683 54.091 28.9683C54.1897 28.9683 54.2879 28.9683 54.4012 28.9683V31.2685H54.1C52.5984 31.2685 51.0968 31.2559 49.5957 31.275C49.0065 31.2825 48.4244 31.288 47.8579 31.1038C46.9082 30.7954 46.3467 30.0836 46.3432 29.0934C46.3316 25.66 46.3391 22.2265 46.3401 18.7925C46.3401 18.768 46.3462 18.7435 46.3532 18.6909L46.3542 18.6914Z" fill="#243258"/>
<path d="M31.7207 21.1742C30.91 20.7792 30.0867 20.6075 29.2341 20.5775C28.7714 20.5615 28.3126 20.6125 27.8922 20.8318C27.092 21.2493 26.9752 22.2034 27.727 22.6959C28.3136 23.0804 28.9859 23.3452 29.638 23.6205C30.342 23.9178 31.0293 24.2287 31.6371 24.7027C33.4016 26.0788 33.2939 28.9952 31.4085 30.3077C30.6763 30.8173 29.855 31.0866 28.9824 31.1943C27.513 31.3755 26.0738 31.2343 24.6829 30.7082C24.2096 30.529 24.2111 30.5245 24.3294 30.0414C24.479 29.4292 24.6291 28.8165 24.7746 28.2203C25.3235 28.4015 25.8442 28.6043 26.381 28.7439C27.2229 28.9622 28.082 29.0568 28.938 28.819C29.7392 28.5963 30.1506 27.907 29.9291 27.2046C29.8314 26.8958 29.633 26.65 29.3575 26.5008C28.9184 26.2631 28.4672 26.0398 28.0019 25.8596C27.2823 25.5808 26.5763 25.2864 25.9303 24.8564C23.5217 23.2531 23.9764 19.9808 26.4474 18.8265C27.5517 18.3104 28.7155 18.2137 29.9084 18.3008C30.6723 18.3569 31.4141 18.5131 32.1276 18.7999C32.3185 18.8765 32.3507 18.9641 32.2933 19.1548C32.0949 19.8146 31.9161 20.4799 31.7207 21.1742Z" fill="#243258"/>
<path d="M29.0204 0V3.06655C28.6427 3.06655 28.2842 3.06655 27.9256 3.06655C27.3314 3.06655 26.7367 3.06454 26.1425 3.06805C26.0101 3.06905 25.9169 3.05603 25.9184 2.88684C25.924 1.95526 25.9229 1.02368 25.925 0.0921065C25.925 0.0680787 25.937 0.0445515 25.9486 0.000500579H29.0214L29.0204 0Z" fill="#243258"/>
<path d="M19.6419 12.4589C19.65 11.9939 19.6605 11.5283 19.6651 11.0633C19.6691 10.6388 19.6661 10.2143 19.6661 9.7678C19.7492 9.75829 19.8207 9.74327 19.8927 9.74327C20.6641 9.74177 21.4361 9.74527 22.2076 9.73977C22.3712 9.73876 22.4518 9.77531 22.4503 9.96052C22.4422 10.7354 22.4473 11.5103 22.4457 12.2857C22.4457 12.3343 22.4327 12.3828 22.4226 12.4534C21.4895 12.4534 20.5629 12.4534 19.6359 12.4534L19.6424 12.4594L19.6419 12.4589Z" fill="#243258"/>
<path d="M24.4118 14.312H26.7277V16.5876H24.4118V14.312Z" fill="#243258"/>
<path d="M24.6941 8.83936H26.9743V11.143C26.7295 11.143 26.4888 11.143 26.2476 11.143C25.7949 11.143 25.3422 11.1415 24.8895 11.144C24.7616 11.1445 24.6579 11.138 24.6589 10.9648C24.6639 10.2985 24.6609 9.63227 24.6634 8.966C24.6634 8.92646 24.682 8.88691 24.6936 8.83936H24.6941Z" fill="#243258"/>
<path d="M20.1237 5.54171V3.26758H22.4048V5.54171H20.1237Z" fill="#243258"/>
</svg>
