<svg width="32" height="37" viewBox="0 0 32 37" fill="none" xmlns="http://www.w3.org/2000/svg">
<path d="M18.7119 11.9352C18.7119 10.1801 20.134 8.75275 21.8926 8.75275C23.6512 8.75275 25.0733 10.1756 25.0733 11.9352C25.0733 13.6947 23.6512 15.1176 21.8926 15.1176C20.134 15.1176 18.7119 13.6947 18.7119 11.9352Z" fill="#FAA61A"/>
<path d="M13.8174 6.09552C13.8174 4.86116 14.8178 3.85571 16.056 3.85571C17.2942 3.85571 18.2946 4.85667 18.2946 6.09552C18.2946 7.33437 17.2942 8.33532 16.056 8.33532C14.8178 8.33532 13.8174 7.33437 13.8174 6.09552Z" fill="#FAA61A"/>
<path d="M9.95923 1.45879C9.95923 0.655334 10.6097 0 11.4172 0C12.2248 0 12.8753 0.650845 12.8753 1.45879C12.8753 2.26674 12.2248 2.91758 11.4172 2.91758C10.6097 2.91758 9.95923 2.26674 9.95923 1.45879Z" fill="#FAA61A"/>
<path d="M8.88257 11.9172C8.88257 10.3866 10.1252 9.14325 11.655 9.14325C13.1848 9.14325 14.4275 10.3866 14.4275 11.9172C14.4275 13.4478 13.1848 14.6911 11.655 14.6911C10.1252 14.6911 8.88257 13.4478 8.88257 11.9172Z" fill="#7599BE"/>
<path d="M4.61182 6.82265C4.61182 5.74539 5.48662 4.87012 6.56331 4.87012C7.64 4.87012 8.5148 5.74539 8.5148 6.82265C8.5148 7.89991 7.64 8.77519 6.56331 8.77519C5.48662 8.77519 4.61182 7.89991 4.61182 6.82265Z" fill="#7599BE"/>
<path d="M1.25171 2.77845C1.25171 2.07823 1.82146 1.50818 2.5213 1.50818C3.22115 1.50818 3.79089 2.07823 3.79089 2.77845C3.79089 3.47867 3.22115 4.04872 2.5213 4.04872C1.82146 4.04872 1.25171 3.47867 1.25171 2.77845Z" fill="#7599BE"/>
<path d="M8.75244 22.3307C8.75244 20.5757 10.1746 19.1483 11.9332 19.1483C13.6917 19.1483 15.1139 20.5712 15.1139 22.3307C15.1139 24.0903 13.6917 25.5131 11.9332 25.5131C10.1746 25.5131 8.75244 24.0903 8.75244 22.3307Z" fill="#21368B"/>
<path d="M3.85815 16.4911C3.85815 15.2567 4.85857 14.2513 6.09676 14.2513C7.33495 14.2513 8.33537 15.2522 8.33537 16.4911C8.33537 17.7299 7.33495 18.7309 6.09676 18.7309C4.85857 18.7309 3.85815 17.7299 3.85815 16.4911Z" fill="#21368B"/>
<path d="M0 11.8498C0 11.0464 0.650498 10.3911 1.45801 10.3911C2.26553 10.3911 2.91602 11.0419 2.91602 11.8498C2.91602 12.6578 2.26553 13.3086 1.45801 13.3086C0.650498 13.3086 0 12.6578 0 11.8498Z" fill="#21368B"/>
<path d="M21.2824 34.1133V27.5599L16.2354 19.7363C15.7958 19.0316 15.4818 18.484 15.2978 18.089C15.1139 17.694 15.0242 17.3529 15.0242 17.0611C15.0242 16.5808 15.2081 16.1679 15.5805 15.8223C15.9528 15.4766 16.4104 15.3016 16.9532 15.3016C17.5275 15.3016 17.9626 15.4632 18.2587 15.7863C18.5548 16.1095 18.9989 16.7559 19.5911 17.7209L23.4537 23.987L27.3567 17.7209C27.59 17.3349 27.7874 17.0117 27.9489 16.7469C28.1104 16.4821 28.2853 16.2397 28.4783 16.0063C28.6712 15.7729 28.8865 15.6023 29.1198 15.4766C29.3531 15.3554 29.6402 15.2926 29.9811 15.2926C30.506 15.2926 30.9457 15.4632 31.3001 15.8088C31.6545 16.1499 31.8294 16.5494 31.8294 16.9983C31.8294 17.3663 31.7397 17.7299 31.5603 18.098C31.3808 18.466 31.0758 18.9732 30.6451 19.6196L25.4725 27.5554V34.1088C25.4725 34.9616 25.2751 35.6035 24.8803 36.0254C24.4855 36.4473 23.9831 36.6583 23.373 36.6583C22.7628 36.6583 22.2514 36.4473 21.8656 36.0299C21.4798 35.6124 21.2869 34.9706 21.2869 34.1043L21.2824 34.1133Z" fill="#21368B"/>
</svg>
