<svg width="96" height="47" viewBox="0 0 96 47" fill="none" xmlns="http://www.w3.org/2000/svg">
<g clip-path="url(#clip0_7_1874)">
<path d="M18.7119 11.9352C18.7119 10.1801 20.134 8.75275 21.8926 8.75275C23.6512 8.75275 25.0733 10.1756 25.0733 11.9352C25.0733 13.6947 23.6512 15.1176 21.8926 15.1176C20.134 15.1176 18.7119 13.6947 18.7119 11.9352Z" fill="#FAA61A"/>
<path d="M13.8174 6.09552C13.8174 4.86116 14.8178 3.85571 16.056 3.85571C17.2942 3.85571 18.2946 4.85667 18.2946 6.09552C18.2946 7.33437 17.2942 8.33532 16.056 8.33532C14.8178 8.33532 13.8174 7.33437 13.8174 6.09552Z" fill="#FAA61A"/>
<path d="M9.95923 1.45879C9.95923 0.655334 10.6097 0 11.4172 0C12.2248 0 12.8753 0.650845 12.8753 1.45879C12.8753 2.26674 12.2248 2.91758 11.4172 2.91758C10.6097 2.91758 9.95923 2.26674 9.95923 1.45879Z" fill="#FAA61A"/>
<path d="M8.88257 11.9172C8.88257 10.3866 10.1252 9.14325 11.655 9.14325C13.1848 9.14325 14.4275 10.3866 14.4275 11.9172C14.4275 13.4478 13.1848 14.6911 11.655 14.6911C10.1252 14.6911 8.88257 13.4478 8.88257 11.9172Z" fill="#7599BE"/>
<path d="M4.61182 6.82265C4.61182 5.74539 5.48662 4.87012 6.56331 4.87012C7.64 4.87012 8.5148 5.74539 8.5148 6.82265C8.5148 7.89991 7.64 8.77519 6.56331 8.77519C5.48662 8.77519 4.61182 7.89991 4.61182 6.82265Z" fill="#7599BE"/>
<path d="M1.25171 2.77845C1.25171 2.07823 1.82146 1.50818 2.5213 1.50818C3.22115 1.50818 3.79089 2.07823 3.79089 2.77845C3.79089 3.47867 3.22115 4.04872 2.5213 4.04872C1.82146 4.04872 1.25171 3.47867 1.25171 2.77845Z" fill="#7599BE"/>
<path d="M8.75244 22.3307C8.75244 20.5757 10.1746 19.1483 11.9332 19.1483C13.6917 19.1483 15.1139 20.5712 15.1139 22.3307C15.1139 24.0903 13.6917 25.5131 11.9332 25.5131C10.1746 25.5131 8.75244 24.0903 8.75244 22.3307Z" fill="#21368B"/>
<path d="M3.85815 16.4911C3.85815 15.2567 4.85857 14.2513 6.09676 14.2513C7.33495 14.2513 8.33537 15.2522 8.33537 16.4911C8.33537 17.7299 7.33495 18.7309 6.09676 18.7309C4.85857 18.7309 3.85815 17.7299 3.85815 16.4911Z" fill="#21368B"/>
<path d="M0 11.8498C0 11.0464 0.650498 10.3911 1.45801 10.3911C2.26553 10.3911 2.91602 11.0419 2.91602 11.8498C2.91602 12.6578 2.26553 13.3086 1.45801 13.3086C0.650498 13.3086 0 12.6578 0 11.8498Z" fill="#21368B"/>
<path d="M21.2824 34.1133V27.5599L16.2354 19.7363C15.7958 19.0316 15.4818 18.484 15.2978 18.089C15.1139 17.694 15.0242 17.3529 15.0242 17.0611C15.0242 16.5808 15.2081 16.1679 15.5805 15.8223C15.9528 15.4766 16.4104 15.3016 16.9532 15.3016C17.5275 15.3016 17.9626 15.4632 18.2587 15.7863C18.5548 16.1095 18.9989 16.7559 19.5911 17.7209L23.4537 23.987L27.3567 17.7209C27.59 17.3349 27.7874 17.0117 27.9489 16.7469C28.1104 16.4821 28.2853 16.2397 28.4783 16.0063C28.6712 15.7729 28.8865 15.6023 29.1198 15.4766C29.3531 15.3554 29.6402 15.2926 29.9811 15.2926C30.506 15.2926 30.9457 15.4632 31.3001 15.8088C31.6545 16.1499 31.8294 16.5494 31.8294 16.9983C31.8294 17.3663 31.7397 17.7299 31.5603 18.098C31.3808 18.466 31.0758 18.9732 30.6451 19.6196L25.4725 27.5554V34.1088C25.4725 34.9616 25.2751 35.6035 24.8803 36.0254C24.4855 36.4473 23.9831 36.6583 23.373 36.6583C22.7628 36.6583 22.2514 36.4473 21.8656 36.0299C21.4798 35.6124 21.2869 34.9706 21.2869 34.1043L21.2824 34.1133Z" fill="#21368B"/>
<path d="M49.3931 33.0539L46.0508 20.6654L42.6683 33.0539C42.4036 33.9921 42.1972 34.6698 42.0402 35.0783C41.8832 35.4868 41.614 35.8548 41.2282 36.178C40.8424 36.5012 40.331 36.6628 39.6894 36.6628C39.1735 36.6628 38.7473 36.5685 38.4109 36.3755C38.0789 36.1825 37.8052 35.9087 37.5989 35.5586C37.3925 35.2085 37.222 34.7865 37.0919 34.3063C36.9618 33.8215 36.8407 33.3726 36.7375 32.9597L33.2966 19.0495C33.0902 18.2416 32.9871 17.6267 32.9871 17.2047C32.9871 16.6706 33.1755 16.2172 33.5523 15.8537C33.9292 15.4901 34.3912 15.3061 34.9475 15.3061C35.7102 15.3061 36.2216 15.5484 36.4863 16.0377C36.751 16.527 36.9798 17.2362 37.1772 18.1653L39.8823 30.2306L42.915 18.9418C43.1393 18.0755 43.3412 17.4202 43.5206 16.9668C43.7001 16.518 43.9917 16.1275 44.3954 15.7953C44.7992 15.4677 45.351 15.3016 46.0464 15.3016C46.7417 15.3016 47.298 15.4721 47.6883 15.8178C48.0786 16.1589 48.3478 16.5359 48.5003 16.9399C48.6528 17.3439 48.8547 18.0127 49.1059 18.9418L52.1655 30.2306L54.8707 18.1653C55.0008 17.5369 55.1264 17.0431 55.2431 16.6841C55.3597 16.325 55.5616 16.0063 55.8487 15.7235C56.1358 15.4407 56.553 15.3016 57.0958 15.3016C57.6387 15.3016 58.1052 15.4811 58.4866 15.8447C58.8679 16.2083 59.0563 16.6616 59.0563 17.2047C59.0563 17.5908 58.9531 18.2057 58.7468 19.0495L55.3059 32.9597C55.0726 33.8978 54.8752 34.589 54.7227 35.0244C54.5656 35.4598 54.3054 35.8458 53.9331 36.1735C53.5607 36.5012 53.0358 36.6673 52.3629 36.6673C51.7259 36.6673 51.21 36.5057 50.8242 36.187C50.4383 35.8683 50.1692 35.5092 50.0211 35.1097C49.8731 34.7102 49.6577 34.028 49.3886 33.0584L49.3931 33.0539Z" fill="#21368B"/>
<path d="M78.0507 29.7863C78.0507 30.4416 77.8892 31.1553 77.5662 31.9183C77.2432 32.6859 76.7317 33.4355 76.0364 34.1716C75.341 34.9077 74.4527 35.5092 73.3716 35.967C72.2904 36.4249 71.0298 36.6583 69.5942 36.6583C68.5041 36.6583 67.5126 36.555 66.6199 36.3486C65.7271 36.1421 64.9151 35.8189 64.1883 35.3835C63.4616 34.9481 62.7887 34.3736 62.1785 33.6599C61.6312 33.0135 61.1691 32.2864 60.7833 31.4829C60.3975 30.6795 60.1104 29.8222 59.9175 28.911C59.7246 27.9998 59.6304 27.0303 59.6304 26.0069C59.6304 24.3416 59.8726 22.8559 60.3571 21.5362C60.8416 20.2211 61.5325 19.0944 62.4342 18.1608C63.336 17.2272 64.3947 16.5135 65.606 16.0242C66.8173 15.535 68.1093 15.2926 69.482 15.2926C71.1554 15.2926 72.6448 15.6248 73.9503 16.2936C75.2558 16.9624 76.2562 17.7838 76.9516 18.7668C77.6469 19.7498 77.9968 20.6744 77.9968 21.5497C77.9968 22.03 77.8264 22.4519 77.4899 22.82C77.1534 23.188 76.7407 23.3676 76.2652 23.3676C75.7268 23.3676 75.3276 23.2419 75.0584 22.986C74.7892 22.7302 74.4931 22.2948 74.1611 21.6754C73.6183 20.652 72.9768 19.8844 72.2366 19.3772C71.5008 18.87 70.5901 18.6142 69.509 18.6142C67.7908 18.6142 66.418 19.2695 65.3996 20.5757C64.3812 21.8818 63.8698 23.7401 63.8698 26.146C63.8698 27.7529 64.0941 29.0905 64.5472 30.1588C65.0003 31.2271 65.6374 32.0216 66.4628 32.5512C67.2883 33.0764 68.2573 33.3412 69.3654 33.3412C70.5677 33.3412 71.5861 33.045 72.416 32.4435C73.246 31.8465 73.874 30.9712 74.3002 29.8132C74.4797 29.2701 74.6995 28.8257 74.9642 28.4801C75.2289 28.1345 75.6506 27.9639 76.2338 27.9639C76.7317 27.9639 77.1579 28.1389 77.5168 28.4846C77.8757 28.8302 78.0507 29.2656 78.0507 29.7818V29.7863Z" fill="#21368B"/>
<path d="M93.86 19.1079H89.293V34.1132C89.293 34.9795 89.1001 35.6169 88.7143 36.0388C88.3285 36.4563 87.8261 36.6672 87.2159 36.6672C86.6058 36.6672 86.0854 36.4563 85.6951 36.0344C85.3048 35.6124 85.1074 34.975 85.1074 34.1177V19.1124H80.5405C79.8272 19.1124 79.2933 18.9553 78.9479 18.6366C78.6024 18.3224 78.4275 17.9049 78.4275 17.3843C78.4275 16.8636 78.6069 16.4237 78.9703 16.1095C79.3337 15.7998 79.8541 15.6427 80.5405 15.6427H93.86C94.5823 15.6427 95.1206 15.8043 95.475 16.123C95.8294 16.4417 96.0044 16.8636 96.0044 17.3798C96.0044 17.896 95.8249 18.3134 95.4705 18.6321C95.1116 18.9463 94.5778 19.1079 93.8645 19.1079H93.86Z" fill="#21368B"/>
<path d="M25.2347 42.5428C25.1943 42.2241 25.0822 41.9593 24.9027 41.7439C24.7233 41.5284 24.5035 41.3623 24.2433 41.2501C23.9831 41.1379 23.7049 41.084 23.4178 41.084C22.9423 41.0885 22.5475 41.2007 22.2335 41.4207C21.9194 41.6406 21.6816 41.9234 21.5246 42.278C21.3676 42.6326 21.2869 43.0186 21.2869 43.4361C21.2869 43.8535 21.3676 44.2395 21.5246 44.5941C21.6816 44.9487 21.9194 45.236 22.2335 45.4514C22.5475 45.6714 22.9468 45.7791 23.4178 45.7881C23.9517 45.7836 24.3823 45.6175 24.7098 45.2943C25.0373 44.9712 25.2347 44.5313 25.2975 43.9702H24.8668C24.822 44.3832 24.6739 44.7243 24.4227 44.9981C24.1715 45.2719 23.835 45.411 23.4133 45.42C23.014 45.4155 22.691 45.3168 22.4398 45.1238C22.1886 44.9308 22.0047 44.6884 21.888 44.3876C21.7714 44.0869 21.7131 43.7682 21.7131 43.4316C21.7131 43.0949 21.7714 42.7762 21.888 42.4755C22.0047 42.1748 22.1931 41.9279 22.4398 41.7394C22.691 41.5464 23.014 41.4476 23.4133 41.4431C23.7498 41.4431 24.0459 41.5419 24.2971 41.7304C24.5483 41.9189 24.7188 42.1882 24.7996 42.5383H25.2302L25.2347 42.5428Z" fill="#21368B"/>
<path d="M28.7071 42.4306H28.3078V44.1452C28.3078 44.3697 28.2719 44.5806 28.2046 44.7826C28.1373 44.9801 28.0297 45.1417 27.8861 45.2674C27.7426 45.3931 27.5541 45.4559 27.3253 45.4604C27.0113 45.4604 26.7915 45.3841 26.6569 45.2315C26.5223 45.0789 26.455 44.8544 26.4505 44.5627V42.4351H26.0513V44.5537C26.0513 44.9397 26.1365 45.2405 26.316 45.4604C26.4954 45.6803 26.7915 45.7926 27.1952 45.797C27.442 45.797 27.6663 45.7387 27.8637 45.6175C28.0611 45.5008 28.2136 45.3302 28.3213 45.1103H28.3347V45.6983H28.7026V42.4306H28.7071Z" fill="#21368B"/>
<path d="M31.9866 43.3867C31.9687 43.0321 31.8475 42.7673 31.6232 42.5967C31.4034 42.4216 31.1253 42.3364 30.7888 42.3364C30.5914 42.3364 30.3985 42.3633 30.2146 42.4261C30.0261 42.489 29.8736 42.5832 29.7525 42.7179C29.6314 42.8526 29.5685 43.0321 29.5641 43.252C29.5685 43.5214 29.6583 43.7233 29.8243 43.8445C29.9902 43.9702 30.2101 44.06 30.4748 44.1228L30.9862 44.235C31.1746 44.2754 31.3406 44.3383 31.4797 44.4236C31.6187 44.5088 31.695 44.6435 31.704 44.832C31.704 44.9846 31.6501 45.1058 31.5559 45.1956C31.4617 45.2854 31.3451 45.3527 31.2105 45.3931C31.0759 45.4335 30.9413 45.4514 30.8112 45.4514C30.542 45.4514 30.3177 45.3841 30.1428 45.245C29.9678 45.1058 29.8691 44.9038 29.8512 44.6345H29.4519C29.4878 45.0295 29.6224 45.3213 29.8601 45.5098C30.0979 45.6938 30.4075 45.7881 30.7933 45.7881C30.9996 45.7881 31.206 45.7567 31.4034 45.6893C31.6008 45.622 31.7668 45.5188 31.8969 45.3751C32.027 45.2315 32.0943 45.043 32.1032 44.8051C32.0943 44.5223 31.9956 44.3113 31.8072 44.1632C31.6232 44.0196 31.4079 43.9298 31.1701 43.8984L30.6363 43.7772C30.542 43.7548 30.4434 43.7233 30.3402 43.6829C30.237 43.6425 30.1473 43.5842 30.0755 43.5124C30.0037 43.4406 29.9633 43.3463 29.9588 43.2296C29.9678 43.0186 30.0531 42.875 30.2101 42.7897C30.3671 42.7044 30.542 42.664 30.7305 42.6685C30.9637 42.6685 31.1611 42.7269 31.3226 42.8391C31.4841 42.9558 31.5694 43.1353 31.5873 43.3822H31.9866V43.3867Z" fill="#21368B"/>
<path d="M33.4849 41.4476H33.0856V42.4306H32.5159V42.7673H33.0856V45.0026C33.0811 45.2764 33.1305 45.4694 33.2381 45.5771C33.3458 45.6849 33.5297 45.7387 33.7944 45.7342C33.8528 45.7342 33.9156 45.7342 33.9739 45.7297C34.0322 45.7297 34.0905 45.7253 34.1488 45.7253V45.3841C34.0367 45.3976 33.92 45.4021 33.8079 45.4021C33.6688 45.3931 33.5791 45.3482 33.5387 45.2764C33.4983 45.2046 33.4804 45.1013 33.4849 44.9712V42.7673H34.1488V42.4306H33.4849V41.4476Z" fill="#21368B"/>
<path fill-rule="evenodd" clip-rule="evenodd" d="M36.2708 42.3364C35.9343 42.3364 35.6562 42.4216 35.4274 42.5743C35.1986 42.7314 35.0236 42.9378 34.907 43.1982C34.7903 43.4585 34.7275 43.7458 34.7275 44.0645C34.7275 44.3787 34.7859 44.6704 34.907 44.9308C35.0236 45.1911 35.1986 45.3976 35.4274 45.5547C35.6562 45.7118 35.9388 45.7926 36.2708 45.7926C36.6028 45.7926 36.8854 45.7073 37.1142 45.5547C37.343 45.3976 37.5179 45.1911 37.6346 44.9308C37.7512 44.6704 37.814 44.3832 37.814 44.0645C37.814 43.7503 37.7557 43.4585 37.6346 43.1982C37.5179 42.9378 37.343 42.7314 37.1142 42.5743C36.8854 42.4172 36.6028 42.3364 36.2708 42.3364ZM36.2708 42.6685C36.5265 42.6685 36.7373 42.7403 36.9078 42.875C37.0783 43.0097 37.2039 43.1802 37.2892 43.3912C37.3744 43.6021 37.4148 43.8266 37.4148 44.06C37.4148 44.2934 37.3744 44.5178 37.2892 44.7288C37.2039 44.9397 37.0783 45.1103 36.9078 45.245C36.7373 45.3796 36.5265 45.447 36.2708 45.4514C36.0151 45.4514 35.8042 45.3796 35.6337 45.245C35.4633 45.1103 35.3377 44.9397 35.2524 44.7288C35.1672 44.5178 35.1268 44.2934 35.1268 44.06C35.1268 43.8266 35.1672 43.6021 35.2524 43.3912C35.3377 43.1802 35.4633 43.0097 35.6337 42.875C35.8042 42.7403 36.0151 42.673 36.2708 42.6685Z" fill="#21368B"/>
<path d="M38.5767 45.6983H38.9759V43.8759C38.9759 43.5258 39.0522 43.243 39.2092 43.0186C39.3617 42.7942 39.613 42.682 39.9539 42.673C40.2051 42.6775 40.3801 42.7583 40.4878 42.9109C40.5954 43.0635 40.6448 43.2565 40.6358 43.4809V45.6983H41.0351V43.849C41.0351 43.6425 41.0575 43.4495 41.1114 43.2745C41.1652 43.0949 41.2549 42.9513 41.385 42.8435C41.5151 42.7313 41.6946 42.6775 41.9234 42.673C42.206 42.673 42.4034 42.7448 42.5245 42.8839C42.6412 43.0231 42.6995 43.2296 42.695 43.4989V45.6938H43.0943V43.4764C43.0943 43.0904 43.0045 42.8032 42.8206 42.6146C42.6367 42.4261 42.3675 42.3318 42.0131 42.3318C41.7933 42.3318 41.5914 42.3857 41.4074 42.489C41.2235 42.5922 41.08 42.7538 40.9768 42.9692C40.914 42.7538 40.7928 42.5922 40.6268 42.489C40.4564 42.3812 40.2635 42.3318 40.0436 42.3318C39.7834 42.3318 39.5681 42.3947 39.3931 42.5069C39.2182 42.6236 39.0791 42.7762 38.9759 42.9782H38.958V42.4261H38.5901V45.6938L38.5767 45.6983Z" fill="#21368B"/>
<path d="M49.6307 42.5428C49.5903 42.2241 49.4782 41.9593 49.2987 41.7439C49.1193 41.5284 48.8995 41.3623 48.6393 41.2501C48.3791 41.1379 48.1054 41.084 47.8138 41.084C47.3383 41.0885 46.9435 41.2007 46.6294 41.4207C46.3154 41.6406 46.0776 41.9234 45.9206 42.278C45.7636 42.6326 45.6829 43.0186 45.6829 43.4361C45.6829 43.8535 45.7636 44.2395 45.9206 44.5941C46.0776 44.9487 46.3154 45.236 46.6294 45.4514C46.9435 45.6714 47.3428 45.7791 47.8138 45.7881C48.3477 45.7836 48.7783 45.6175 49.1058 45.2943C49.4333 44.9712 49.6307 44.5313 49.6935 43.9702H49.2628C49.218 44.3832 49.0699 44.7243 48.8187 44.9981C48.5675 45.2719 48.231 45.411 47.8093 45.42C47.41 45.4155 47.087 45.3168 46.8358 45.1238C46.5846 44.9308 46.4007 44.6884 46.284 44.3876C46.1674 44.0869 46.109 43.7682 46.109 43.4316C46.109 43.0949 46.1674 42.7762 46.284 42.4755C46.4007 42.1748 46.5846 41.9279 46.8358 41.7394C47.087 41.5464 47.41 41.4476 47.8093 41.4431C48.1458 41.4431 48.4419 41.5419 48.6931 41.7304C48.9443 41.9189 49.1148 42.1882 49.1955 42.5383H49.6262L49.6307 42.5428Z" fill="#21368B"/>
<path fill-rule="evenodd" clip-rule="evenodd" d="M51.8335 42.3364C51.5016 42.3364 51.2189 42.4216 50.9901 42.5743C50.7613 42.7314 50.5864 42.9378 50.4697 43.1982C50.3531 43.4585 50.2903 43.7458 50.2903 44.0645C50.2903 44.3787 50.3486 44.6704 50.4697 44.9308C50.5864 45.1911 50.7613 45.3976 50.9901 45.5547C51.2189 45.7118 51.5016 45.7926 51.8335 45.7926C52.1655 45.7926 52.4481 45.7073 52.6769 45.5547C52.9057 45.3976 53.0807 45.1911 53.1973 44.9308C53.314 44.6704 53.3768 44.3832 53.3768 44.0645C53.3768 43.7503 53.3185 43.4585 53.1973 43.1982C53.0762 42.9378 52.9057 42.7314 52.6769 42.5743C52.4481 42.4172 52.1655 42.3364 51.8335 42.3364ZM51.8335 42.6685C52.0892 42.6685 52.3001 42.7403 52.4706 42.875C52.641 43.0097 52.7667 43.1802 52.8519 43.3912C52.9371 43.6021 52.9775 43.8266 52.9775 44.06C52.9775 44.2979 52.9371 44.5178 52.8519 44.7288C52.7667 44.9397 52.641 45.1103 52.4706 45.245C52.3001 45.3796 52.0892 45.447 51.8335 45.4514C51.5778 45.4514 51.367 45.3796 51.1965 45.245C51.026 45.1103 50.9004 44.9397 50.8152 44.7288C50.7299 44.5178 50.6896 44.2934 50.6896 44.06C50.6896 43.8266 50.7299 43.6021 50.8152 43.3912C50.9004 43.1802 51.026 43.0097 51.1965 42.875C51.367 42.7403 51.5778 42.673 51.8335 42.6685Z" fill="#21368B"/>
<path fill-rule="evenodd" clip-rule="evenodd" d="M55.521 42.3364C55.1846 42.3364 54.9064 42.4216 54.6776 42.5743C54.4488 42.7314 54.2739 42.9378 54.1572 43.1982C54.0406 43.4585 53.9778 43.7458 53.9778 44.0645C53.9778 44.3787 54.0361 44.6704 54.1572 44.9308C54.2739 45.1911 54.4488 45.3976 54.6776 45.5547C54.9064 45.7118 55.1891 45.7926 55.521 45.7926C55.853 45.7926 56.1356 45.7073 56.3644 45.5547C56.5932 45.3976 56.7682 45.1911 56.8848 44.9308C57.0015 44.6704 57.0643 44.3832 57.0643 44.0645C57.0643 43.7503 57.006 43.4585 56.8848 43.1982C56.7682 42.9378 56.5932 42.7314 56.3644 42.5743C56.1356 42.4172 55.853 42.3364 55.521 42.3364ZM55.521 42.6685C55.7767 42.6685 55.9876 42.7403 56.1581 42.875C56.3285 43.0097 56.4542 43.1802 56.5394 43.3912C56.6246 43.6021 56.665 43.8266 56.665 44.06C56.665 44.2934 56.6246 44.5178 56.5394 44.7288C56.4542 44.9397 56.3285 45.1103 56.1581 45.245C55.9876 45.3796 55.7767 45.447 55.521 45.4514C55.2653 45.4514 55.0545 45.3796 54.884 45.245C54.7135 45.1103 54.5879 44.9397 54.5027 44.7288C54.4174 44.5178 54.3771 44.2934 54.3771 44.06C54.3771 43.8221 54.4174 43.6021 54.5027 43.3912C54.5879 43.1802 54.7135 43.0097 54.884 42.875C55.0545 42.7403 55.2653 42.673 55.521 42.6685Z" fill="#21368B"/>
<path d="M57.8359 45.6983H58.2352V41.1783H57.8359V45.6983Z" fill="#21368B"/>
<path fill-rule="evenodd" clip-rule="evenodd" d="M59.1729 45.6983H59.5721V42.4306H59.1729V45.6983ZM59.1729 41.8157H59.5721V41.1783H59.1729V41.8157Z" fill="#21368B"/>
<path d="M60.5007 45.6983H60.8999V43.7906C60.9089 43.463 61.0031 43.1981 61.1781 42.9917C61.3575 42.7852 61.6043 42.6775 61.9228 42.673C62.2413 42.6775 62.4611 42.7717 62.5778 42.9558C62.6989 43.1398 62.7572 43.3732 62.7483 43.6605V45.6983H63.1475V43.5976C63.1565 43.2026 63.0713 42.8974 62.8918 42.6775C62.7169 42.4575 62.4028 42.3453 61.9497 42.3408C61.7119 42.3408 61.5011 42.4037 61.3082 42.5204C61.1153 42.6371 60.9807 42.7987 60.9044 42.9962H60.891V42.4351H60.4917V45.7028L60.5007 45.6983Z" fill="#21368B"/>
<path fill-rule="evenodd" clip-rule="evenodd" d="M65.3861 45.3258C65.1394 45.3258 64.9375 45.2584 64.7805 45.1372C64.6235 45.0161 64.5023 44.8545 64.4261 44.657C64.3498 44.4595 64.3094 44.253 64.3094 44.0286C64.3094 43.7996 64.3453 43.5797 64.4216 43.3777C64.4934 43.1712 64.61 43.0052 64.7715 42.875C64.9285 42.7448 65.1349 42.6775 65.3906 42.673C65.6418 42.6775 65.8437 42.7493 65.9962 42.884C66.1532 43.0186 66.2654 43.1892 66.3327 43.3957C66.4045 43.6021 66.4404 43.8131 66.4359 44.0331C66.4359 44.2575 66.3955 44.4684 66.3148 44.6659C66.234 44.8634 66.1174 45.0205 65.9603 45.1417C65.8033 45.2629 65.6104 45.3258 65.3816 45.3303L65.3861 45.3258ZM66.8351 42.4306H66.4359V42.9917H66.4224C66.3417 42.8077 66.2071 42.6506 66.0231 42.5294C65.8392 42.4037 65.6284 42.3409 65.3861 42.3364C65.0721 42.3364 64.8029 42.4172 64.5831 42.5653C64.3633 42.7134 64.1973 42.9109 64.0806 43.1578C63.9685 43.4046 63.9102 43.6785 63.9102 43.9837C63.9102 44.2979 63.9595 44.5807 64.0582 44.832C64.1614 45.0834 64.3184 45.2854 64.5382 45.4335C64.7536 45.5816 65.0362 45.6579 65.3861 45.6624C65.6239 45.6624 65.8302 45.5996 66.0142 45.4784C66.1936 45.3572 66.3327 45.1956 66.4269 44.9936H66.4404V45.438C66.4404 45.8375 66.3596 46.1427 66.1891 46.3536C66.0187 46.5646 65.754 46.6723 65.3861 46.6723C65.1573 46.6723 64.9554 46.6275 64.776 46.5287C64.5965 46.43 64.4799 46.2594 64.4305 46.0215H64.0313C64.0537 46.2549 64.13 46.4434 64.2646 46.5871C64.3947 46.7307 64.5607 46.8384 64.758 46.9057C64.9554 46.9731 65.1663 47.009 65.3861 47.009C65.9155 47.0045 66.2878 46.8654 66.5077 46.5915C66.7275 46.3177 66.8351 45.9317 66.8351 45.4425V42.4441V42.4306Z" fill="#21368B"/>
<path d="M69.1458 41.5419H70.7204V45.6983H71.1511V41.5419H72.7257V41.1783H69.1458V41.5419Z" fill="#21368B"/>
<path fill-rule="evenodd" clip-rule="evenodd" d="M74.0266 42.3364C73.6902 42.3364 73.412 42.4216 73.1832 42.5743C72.9544 42.7314 72.7795 42.9378 72.6628 43.1982C72.5462 43.4585 72.4834 43.7458 72.4834 44.0645C72.4834 44.3787 72.5417 44.6704 72.6628 44.9308C72.7795 45.1911 72.9544 45.3976 73.1832 45.5547C73.412 45.7118 73.6947 45.7926 74.0266 45.7926C74.3586 45.7926 74.6413 45.7073 74.87 45.5547C75.0988 45.3976 75.2738 45.1911 75.3904 44.9308C75.5071 44.6704 75.5699 44.3832 75.5699 44.0645C75.5699 43.7503 75.5116 43.4585 75.3904 43.1982C75.2738 42.9378 75.0988 42.7314 74.87 42.5743C74.6413 42.4172 74.3586 42.3364 74.0266 42.3364ZM74.0266 42.6685C74.2824 42.6685 74.4932 42.7403 74.6637 42.875C74.8342 43.0097 74.9598 43.1802 75.045 43.3912C75.1302 43.6021 75.1706 43.8266 75.1706 44.06C75.1706 44.2934 75.1302 44.5178 75.045 44.7288C74.9598 44.9397 74.8342 45.1103 74.6637 45.245C74.4932 45.3796 74.2824 45.447 74.0266 45.4514C73.7709 45.4514 73.5601 45.3796 73.3896 45.245C73.2191 45.1103 73.0935 44.9397 73.0083 44.7288C72.923 44.5178 72.8827 44.2934 72.8827 44.06C72.8827 43.8221 72.923 43.6021 73.0083 43.3912C73.0935 43.1802 73.2191 43.0097 73.3896 42.875C73.5601 42.7403 73.7709 42.673 74.0266 42.6685Z" fill="#21368B"/>
<path d="M77.0549 45.6983H77.4945L78.2886 42.9513H78.3021L79.1051 45.6983H79.5447L80.5945 42.4306H80.1683L79.3339 45.227H79.3204L78.5264 42.4306H78.0733L77.2792 45.227H77.2657L76.4268 42.4306H76.0051L77.0549 45.6983Z" fill="#21368B"/>
<path fill-rule="evenodd" clip-rule="evenodd" d="M83.9502 44.1722C83.9637 43.8625 83.9188 43.5662 83.8246 43.2879C83.7304 43.0097 83.5734 42.7852 83.358 42.6102C83.1427 42.4351 82.8601 42.3453 82.5101 42.3364C82.1647 42.3409 81.8821 42.4261 81.6667 42.5922C81.4514 42.7583 81.2899 42.9693 81.1867 43.2341C81.0835 43.4944 81.0342 43.7727 81.0342 44.0645C81.0342 44.3787 81.0835 44.6659 81.1867 44.9263C81.2899 45.1866 81.4469 45.3931 81.6667 45.5502C81.8821 45.7073 82.1647 45.7881 82.5101 45.7926C82.9184 45.7926 83.2369 45.6893 83.4657 45.4829C83.6945 45.2809 83.8515 44.9936 83.9323 44.6211H83.533C83.4702 44.8724 83.358 45.0744 83.192 45.2225C83.026 45.3751 82.7972 45.4514 82.5101 45.4559C82.2544 45.4514 82.0481 45.3841 81.891 45.2539C81.734 45.1238 81.6174 44.9622 81.5456 44.7647C81.4738 44.5672 81.4335 44.3742 81.4335 44.1722H83.9457H83.9502ZM81.4379 43.8356C81.4604 43.6336 81.5142 43.445 81.5994 43.27C81.6847 43.0949 81.8058 42.9513 81.9583 42.8391C82.1109 42.7314 82.2948 42.673 82.5146 42.6685C82.73 42.6685 82.9139 42.7269 83.0664 42.8391C83.219 42.9468 83.3356 43.0904 83.4208 43.2655C83.5016 43.4406 83.5464 43.6291 83.5554 43.8356H81.4424H81.4379Z" fill="#21368B"/>
<path d="M84.6543 45.6983H85.0536V43.9567C85.0581 43.6111 85.1702 43.3238 85.39 43.1039C85.6099 42.884 85.9015 42.7762 86.2693 42.7852V42.3857C85.9732 42.3767 85.7175 42.4396 85.5067 42.5832C85.2958 42.7269 85.1388 42.9288 85.0356 43.1937H85.0222V42.4306H84.6543V45.6983Z" fill="#21368B"/>
<path d="M89.1809 43.3867C89.163 43.0321 89.0419 42.7673 88.8176 42.5967C88.5977 42.4216 88.3196 42.3364 87.9831 42.3364C87.7857 42.3364 87.5973 42.3633 87.4089 42.4261C87.2205 42.489 87.0679 42.5832 86.9468 42.7179C86.8257 42.8526 86.7629 43.0321 86.7584 43.252C86.7629 43.5214 86.8526 43.7233 87.0186 43.8445C87.1891 43.9702 87.4044 44.06 87.6691 44.1228L88.1805 44.235C88.3689 44.2754 88.5304 44.3383 88.674 44.4236C88.8131 44.5088 88.8893 44.6435 88.8983 44.832C88.8983 44.9846 88.8445 45.1058 88.7503 45.1956C88.6561 45.2854 88.5394 45.3527 88.4048 45.3931C88.2702 45.4335 88.1357 45.4514 88.0056 45.4514C87.7364 45.4514 87.5121 45.3841 87.3371 45.245C87.1621 45.1058 87.0635 44.9038 87.0455 44.6345H86.6462C86.6821 45.0295 86.8167 45.3213 87.0545 45.5098C87.2923 45.6938 87.6018 45.7881 87.9876 45.7881C88.194 45.7881 88.4003 45.7567 88.5977 45.6893C88.7951 45.622 88.9611 45.5188 89.0912 45.3751C89.2213 45.2315 89.2931 45.043 89.2976 44.8051C89.2886 44.5223 89.1899 44.3113 89.0015 44.1632C88.8176 44.0196 88.6022 43.9298 88.3645 43.8984L87.8306 43.7772C87.7364 43.7548 87.6377 43.7233 87.5345 43.6829C87.4313 43.6425 87.3416 43.5842 87.2698 43.5124C87.198 43.4406 87.1577 43.3463 87.1532 43.2296C87.1622 43.0186 87.2474 42.875 87.4044 42.7897C87.5614 42.7044 87.7364 42.664 87.9248 42.6685C88.1581 42.6685 88.3555 42.7269 88.517 42.8391C88.6785 42.9558 88.7637 43.1353 88.7817 43.3822H89.1809V43.3867Z" fill="#21368B"/>
</g>
<defs>
<clipPath id="clip0_7_1874">
<rect width="96" height="47" fill="white"/>
</clipPath>
</defs>
</svg>
